<svg xmlns="http://www.w3.org/2000/svg" viewBox="0 0 1728 1296"><title>fix-sementara</title><path d="M646.65,300.37S676.83,339,698,350c83,43.05,195.52-8.6,264.81-8,22.71.21,72.32,3.32,98.84,32.08,16.82,18.23,41,48.88,41,70.24-.08,25.15-29.35,39.46-42,34.5C858.34,399.45,785,566,701.71,457.46c-34.86-45.44-62.38-74-67.06-104.59C629,316,646.65,300.37,646.65,300.37Z" transform="translate(-0.37)" fill="#1b2444"/><path d="M1097,525.83c8.59,35.46-4.11,49.79-12.86,65.63-11.75,21.27-37.3,41.13-83.8,44.13-38.22,2.47-142.1-20.47-174.47,10.23-19.82,18.8-61.3,47.87-64.2,226.44-1.07,66.08-31.29,84.71-49.07,97.58-18.86,13.65-90,24-90,24s11.11-222.95,51-329C689.38,623.15,734.81,554.53,783,522,943,414,1086.82,483.66,1097,525.83Z" transform="translate(-0.37)" fill="#1b2444"/><circle cx="920.77" cy="730.85" r="52.5" fill="#f7931e"/><line y1="648" x2="577" y2="648" fill="none"/><line x1="1151" y1="648" x2="1728" y2="648" fill="none"/><line x1="863.42" x2="864.63" y2="215.37" fill="none"/><line x1="863.41" y1="1079.02" x2="864.63" y2="1296" fill="none"/><rect x="576.63" y="215.37" width="574" height="863.63" fill="none"/></svg>